<?xml version="1.0" encoding="UTF-8"?>
<svg version="1.1" xmlns="http://www.w3.org/2000/svg" width="500" height="500">
<path d="M0 0 C165 0 330 0 500 0 C500 165 500 330 500 500 C335 500 170 500 0 500 C0 335 0 170 0 0 Z " fill="#FEFEFE" transform="translate(0,0)"/>
<path d="M0 0 C0 21.45 0 42.9 0 65 C-6.93 65 -13.86 65 -21 65 C-24.29460315 22.17015902 -24.29460315 22.17015902 -16.58203125 12.55859375 C-4.85072687 0 -4.85072687 0 0 0 Z " fill="#0049AB" transform="translate(152,216)"/>
<path d="M0 0 C-0.57862635 3.90572783 -2.52099209 6.01060811 -5 9 C-5.7734375 10.3921875 -5.7734375 10.3921875 -6.5625 11.8125 C-7.036875 12.534375 -7.51125 13.25625 -8 14 C-8.99 14 -9.98 14 -11 14 C-11.495 13.01 -11.495 13.01 -12 12 C-15.29312827 15.2681483 -18.58275765 18.53976696 -21.86938477 21.81445312 C-22.9846729 22.92475584 -24.10086211 24.03415429 -25.21801758 25.14257812 C-26.83660962 26.7488477 -28.45178072 28.35849442 -30.06640625 29.96875 C-30.55524796 30.45243042 -31.04408966 30.93611084 -31.54774475 31.43444824 C-34.89122147 34.77739881 -38.01623243 38.26928719 -41.11332703 41.84069824 C-47.04537114 48.62993701 -53.22754187 55.1847817 -59.46435547 61.69335938 C-61.23351125 63.55959308 -62.98252312 65.44513785 -64.71044922 67.34960938 C-79.91813365 84.07025157 -79.91813365 84.07025157 -88.98730469 85.21484375 C-94.10860235 85.4079383 -98.96146567 84.89488959 -104 84 C-101.18853089 81.14585491 -98.38136256 78.37926475 -95.28515625 75.8359375 C-94.26663574 74.99736206 -94.26663574 74.99736206 -93.22753906 74.1418457 C-92.51307617 73.55878662 -91.79861328 72.97572754 -91.0625 72.375 C-90.31323242 71.76035889 -89.56396484 71.14571777 -88.79199219 70.51245117 C-83.59251818 66.26129157 -78.33035543 62.09772896 -73.02954102 57.97412109 C-69.10487277 54.90714689 -65.28405256 51.73840774 -61.5 48.5 C-56.60617081 44.31184086 -51.60480863 40.29642727 -46.52050781 36.3425293 C-40.9546831 31.99931335 -35.51295296 27.51180208 -30.07348633 23.01196289 C-24.75977339 18.6176835 -19.40775214 14.27836902 -14 10 C-14.99 9.505 -14.99 9.505 -16 9 C-15.375 6.625 -15.375 6.625 -14 4 C-11.125 2.8125 -11.125 2.8125 -8 2 C-6.948125 1.443125 -6.948125 1.443125 -5.875 0.875 C-4 0 -4 0 0 0 Z " fill="#084CA6" transform="translate(166,197)"/>
<path d="M0 0 C2.31 0 4.62 0 7 0 C7 13.2 7 26.4 7 40 C4.36 40 1.72 40 -1 40 C-1.33 39.34 -1.66 38.68 -2 38 C-2.99 38.66 -3.98 39.32 -5 40 C-9.47208083 40.72022276 -12.98669453 40.58211165 -16.9375 38.3125 C-21.14261799 33.59767074 -21.4311352 28.82470666 -21.32421875 22.73046875 C-20.83254935 18.58978307 -19.48363402 16.33516569 -17 13 C-13.92745875 10.95163917 -13.12831715 10.70543507 -9.625 10.6875 C-8.49964844 10.66236328 -8.49964844 10.66236328 -7.3515625 10.63671875 C-5 11 -5 11 0 14 C0 9.38 0 4.76 0 0 Z " fill="#0C0C0C" transform="translate(425,230)"/>
<path d="M0 0 C5.6445405 2.30523824 5.6445405 2.30523824 7.375 5.6875 C7.58125 6.450625 7.7875 7.21375 8 8 C6.02 8.99 4.04 9.98 2 11 C1.34 10.01 0.68 9.02 0 8 C-3.6155391 6.7948203 -7.27522224 6.04199574 -11 7 C-13.95788337 9.7562095 -14.92168915 11.37279478 -15.42578125 15.41015625 C-15.38839844 16.61542969 -15.35101563 17.82070312 -15.3125 19.0625 C-15.28800781 20.27035156 -15.26351562 21.47820312 -15.23828125 22.72265625 C-15.01971588 26.45841149 -15.01971588 26.45841149 -14 30 C-10.24302216 31.25232595 -6.93005059 31.45125842 -3 31 C-0.34648721 29.37365345 -0.08493838 28.33203185 0.6875 25.3125 C0.790625 24.549375 0.89375 23.78625 1 23 C-1.97 23 -4.94 23 -8 23 C-8 21.02 -8 19.04 -8 17 C-2.39 17 3.22 17 9 17 C9 23.93 9 30.86 9 38 C6.36 38 3.72 38 1 38 C0.67 37.01 0.34 36.02 0 35 C-0.54914063 35.4846875 -1.09828125 35.969375 -1.6640625 36.46875 C-5.7890629 39.17276364 -10.25071044 38.72271798 -15 38 C-18.7915509 36.28694989 -20.69052477 33.49516037 -22.875 30 C-25.18759724 23.72295034 -25.19554155 15.35977116 -22.9375 9.0625 C-17.0954151 -0.17176323 -10.84809489 -1.60666388 0 0 Z " fill="#0A0A0A" transform="translate(195,232)"/>
<path d="M0 0 C3.82547135 1.27515712 5.60804136 2.58741196 8.375 5.5 C10.65060177 10.40129612 10.79133783 14.68220977 10 20 C7.98063406 24.03873187 5.82485679 26.63798318 2 29 C-2.64432556 29.7762104 -7.69948931 30.06683988 -12.046875 28.05078125 C-15.24121156 25.544334 -17.12866408 22.92101162 -18 19 C-18.54605689 13.91484517 -18.60193444 10.18237123 -16.25 5.5625 C-11.19752019 -0.19171312 -7.46663465 -0.85062926 0 0 Z " fill="#070707" transform="translate(250,241)"/>
<path d="M0 0 C1.98 0 3.96 0 6 0 C6.268125 0.94875 6.53625 1.8975 6.8125 2.875 C8.16046928 7.59774129 9.58284503 12.29762216 11 17 C12.65 11.39 14.3 5.78 16 0 C18.31 0 20.62 0 23 0 C23.64894237 2.06152389 24.2940264 4.12426258 24.9375 6.1875 C25.29714844 7.33605469 25.65679687 8.48460937 26.02734375 9.66796875 C26.83756036 12.44353006 27.49134307 15.15687548 28 18 C29.72852643 12.01663928 31.36959185 6.01077136 33 0 C34.98 0 36.96 0 39 0 C38.40390686 6.73516737 37.14905977 13.02788945 35.4375 19.5625 C35.08655273 20.93245117 35.08655273 20.93245117 34.72851562 22.33007812 C34.15776375 24.55484564 33.58152522 26.77802897 33 29 C30.36 29 27.72 29 25 29 C23.16597696 23.03331172 21.46110748 17.06921567 20 11 C18.30212631 14.10909337 17.32724998 17.13859301 16.4375 20.5625 C15.69093613 23.41336824 14.93224172 26.20327484 14 29 C11.36 29 8.72 29 6 29 C4.99028956 25.10661739 3.99394645 21.20993415 3 17.3125 C2.71382813 16.20970703 2.42765625 15.10691406 2.1328125 13.97070312 C1.86210937 12.90400391 1.59140625 11.83730469 1.3125 10.73828125 C1.06113281 9.75899658 0.80976563 8.77971191 0.55078125 7.77075195 C0.01929925 5.0970865 -0.10407774 2.71686266 0 0 Z " fill="#0D0D0D" transform="translate(264,241)"/>
<path d="M0 0 C0 13.53 0 27.06 0 41 C-5.94 41 -11.88 41 -18 41 C-20.53110924 21.29705159 -20.53110924 21.29705159 -16.34765625 14.19482422 C-4.77851096 0 -4.77851096 0 0 0 Z " fill="#0BBC66" transform="translate(128,240)"/>
<path d="M0 0 C0.495 1.485 0.495 1.485 1 3 C1.99 3.495 1.99 3.495 3 4 C1.35 4.66 -0.3 5.32 -2 6 C-1.505 6.495 -1.505 6.495 -1 7 C-0.90586313 9.05556661 -0.88257002 11.11440181 -0.88647461 13.17211914 C-0.88632858 13.81600082 -0.88618256 14.45988251 -0.8860321 15.12327576 C-0.88673115 17.26060303 -0.89452309 19.39784413 -0.90234375 21.53515625 C-0.90420796 23.01346285 -0.90563185 24.49177007 -0.90663147 25.97007751 C-0.91045641 29.86798802 -0.92028648 33.76586149 -0.93133545 37.66375732 C-0.94155008 41.63846333 -0.9461292 45.61317529 -0.95117188 49.58789062 C-0.96190878 57.391944 -0.97898491 65.19596682 -1 73 C-1.33 73 -1.66 73 -2 73 C-2.33 51.88 -2.66 30.76 -3 9 C-22.57866412 24.96789978 -22.57866412 24.96789978 -24.07421875 39.48046875 C-24.04121213 43.42145866 -23.91733663 47.26342043 -23.6875 51.1875 C-23.64025829 53.22051712 -23.6018007 55.25375794 -23.57226562 57.28710938 C-23.4822216 62.19986354 -23.27526366 67.09428242 -23 72 C-23.99 72.33 -24.98 72.66 -26 73 C-26.33 59.8 -26.66 46.6 -27 33 C-38.84933083 42.04113556 -38.84933083 42.04113556 -44.28515625 55.18359375 C-44.63557702 60.80375378 -44.48942132 66.39229307 -44 72 C-44.33 72 -44.66 72 -45 72 C-45.33 65.07 -45.66 58.14 -46 51 C-46.9075 52.2375 -47.815 53.475 -48.75 54.75 C-53.61855607 61.03813505 -59.31154457 66.46691968 -65 72 C-65.99 72.99 -65.99 72.99 -67 74 C-67.33 73.34 -67.66 72.68 -68 72 C-68.99 72 -69.98 72 -71 72 C-70.50189316 71.50411377 -70.00378632 71.00822754 -69.49058533 70.49731445 C-64.76632425 65.79320098 -60.04455475 61.08660204 -55.32547665 56.37728882 C-52.900045 53.95704636 -50.47370472 51.53773052 -48.04516602 49.12060547 C-45.24472385 46.33324068 -42.44845178 43.54171274 -39.65234375 40.75 C-38.36129982 39.466698 -38.36129982 39.466698 -37.04417419 38.1574707 C-32.71900784 33.83270258 -28.561501 29.43819254 -24.57444763 24.80029297 C-22.25195478 22.14465206 -19.78726257 19.67547012 -17.28515625 17.1875 C-16.78455185 16.68831055 -16.28394745 16.18912109 -15.76817322 15.67480469 C-14.20199236 14.1141263 -12.63233529 12.55700153 -11.0625 11 C-9.98609346 9.92862113 -8.90991986 8.85700818 -7.83398438 7.78515625 C-5.22533255 5.18740362 -2.61355529 2.59282038 0 0 Z " fill="#E9FEFB" transform="translate(154,208)"/>
<path d="M0 0 C7.92 0 15.84 0 24 0 C24 1.98 24 3.96 24 6 C18.72 6 13.44 6 8 6 C8 9.3 8 12.6 8 16 C12.95 16 17.9 16 23 16 C23 18.31 23 20.62 23 23 C18.05 23 13.1 23 8 23 C8 27.95 8 32.9 8 38 C5.36 38 2.72 38 0 38 C0 25.46 0 12.92 0 0 Z " fill="#0F0F0F" transform="translate(309,232)"/>
<path d="M0 0 C2.64 0 5.28 0 8 0 C8.33 7.26 8.66 14.52 9 22 C11.31 22 13.62 22 16 22 C17.61635488 19.13026116 18.2733418 16.95535797 18.4140625 13.671875 C18.45273437 12.87265625 18.49140625 12.0734375 18.53125 11.25 C18.5621875 10.425 18.593125 9.6 18.625 8.75 C18.66367187 7.90953125 18.70234375 7.0690625 18.7421875 6.203125 C18.83615836 4.13576618 18.91915564 2.06791373 19 0 C21.31 0 23.62 0 26 0 C26 9.57 26 19.14 26 29 C23.69 29 21.38 29 19 29 C18.67 28.01 18.34 27.02 18 26 C17.60683594 26.48597656 17.21367187 26.97195313 16.80859375 27.47265625 C13.88460629 29.94194156 11.06884646 29.46683955 7.3828125 29.359375 C5 29 5 29 2.4375 27.1875 C0.14483838 23.69866709 -0.12118966 20.96581098 -0.09765625 16.89453125 C-0.09443359 15.91162109 -0.09121094 14.92871094 -0.08789062 13.91601562 C-0.07951172 12.89185547 -0.07113281 11.86769531 -0.0625 10.8125 C-0.05798828 9.77673828 -0.05347656 8.74097656 -0.04882812 7.67382812 C-0.0370401 5.11582734 -0.02058515 2.55794267 0 0 Z " fill="#101010" transform="translate(338,241)"/>
<path d="M0 0 C2.31 0 4.62 0 7 0 C7.33 0.99 7.66 1.98 8 3 C8.474375 2.505 8.94875 2.01 9.4375 1.5 C13.20552978 -0.70567597 16.73266411 -0.72952617 21 0 C23.50160818 1.87620613 24.61945652 3.23891303 26 6 C26.08449628 7.7404417 26.10723024 9.48409722 26.09765625 11.2265625 C26.09443359 12.2578125 26.09121094 13.2890625 26.08789062 14.3515625 C26.07951172 15.43179687 26.07113281 16.51203125 26.0625 17.625 C26.05798828 18.71296875 26.05347656 19.8009375 26.04882812 20.921875 C26.03701776 23.61463789 26.02054778 26.30729188 26 29 C23.69 29 21.38 29 19 29 C18.97494385 28.36908447 18.9498877 27.73816895 18.92407227 27.08813477 C18.80845863 24.24603175 18.68557684 21.40428917 18.5625 18.5625 C18.52318359 17.56927734 18.48386719 16.57605469 18.44335938 15.55273438 C18.40146484 14.60849609 18.35957031 13.66425781 18.31640625 12.69140625 C18.27974854 11.81685791 18.24309082 10.94230957 18.20532227 10.04125977 C18.21818934 8.0072598 18.21818934 8.0072598 17 7 C14.32941149 6.85884839 11.67567762 6.95752893 9 7 C8.09166031 9.72501908 7.81640015 11.62233971 7.68359375 14.44921875 C7.64169922 15.29677734 7.59980469 16.14433594 7.55664062 17.01757812 C7.51732422 17.89865234 7.47800781 18.77972656 7.4375 19.6875 C7.39431641 20.58017578 7.35113281 21.47285156 7.30664062 22.39257812 C7.20064647 24.59490108 7.09857949 26.79733473 7 29 C4.69 29 2.38 29 0 29 C0 19.43 0 9.86 0 0 Z " fill="#070707" transform="translate(372,241)"/>
<path d="M0 0 C2.31 0 4.62 0 7 0 C7.33 0.66 7.66 1.32 8 2 C8.99 1.34 9.98 0.68 11 0 C14.1875 -0.125 14.1875 -0.125 17 0 C17 2.31 17 4.62 17 7 C15.88625 7.12375 14.7725 7.2475 13.625 7.375 C9.96896323 7.6465813 9.96896323 7.6465813 8 10 C7.63105418 12.03060659 7.63105418 12.03060659 7.5859375 14.3515625 C7.54726562 15.20234375 7.50859375 16.053125 7.46875 16.9296875 C7.4378125 17.81914062 7.406875 18.70859375 7.375 19.625 C7.31699219 20.97078125 7.31699219 20.97078125 7.2578125 22.34375 C7.16340643 24.5622927 7.07783252 26.78082403 7 29 C4.69 29 2.38 29 0 29 C0 19.43 0 9.86 0 0 Z " fill="#0A0A0A" transform="translate(212,241)"/>
<path d="M0 0 C0 21.45 0 42.9 0 65 C-6.93 65 -13.86 65 -21 65 C-24.29460315 22.17015902 -24.29460315 22.17015902 -16.58203125 12.55859375 C-4.85072687 0 -4.85072687 0 0 0 Z M-4.6171875 6.58984375 C-6.25805458 8.26901117 -7.89161088 9.9547619 -9.51953125 11.64648438 C-13.67987737 15.89329246 -13.67987737 15.89329246 -17 17 C-19.07538624 20.11307936 -19.24772151 20.76348195 -19.22705078 24.2878418 C-19.22689972 25.14850754 -19.22674866 26.00917328 -19.22659302 26.8959198 C-19.21627045 27.82100845 -19.20594788 28.74609711 -19.1953125 29.69921875 C-19.1924826 30.64940384 -19.18965271 31.59958893 -19.18673706 32.5785675 C-19.17553715 35.61500615 -19.15043288 38.65115042 -19.125 41.6875 C-19.11496996 43.74543845 -19.10584415 45.80338152 -19.09765625 47.86132812 C-19.07559842 52.9076656 -19.04106982 57.95378288 -19 63 C-13.06 63 -7.12 63 -1 63 C-1 43.53 -1 24.06 -1 4 C-2.49519461 3.88276936 -2.49519461 3.88276936 -4.6171875 6.58984375 Z " fill="#174C95" transform="translate(152,216)"/>
<path d="M0 0 C3.18637863 2.76711829 3.93192325 4.35327089 4.375 8.5625 C4.03733366 11.65777481 3.7512377 13.47043443 2 16 C-1.11877956 17.55938978 -3.57255771 17.3607834 -7 17 C-9.67579911 14.23788479 -10.21459361 11.66421614 -10.4375 7.9375 C-10 4 -10 4 -8.375 1.5 C-5.25673949 -0.46942769 -3.62279473 -0.67927401 0 0 Z " fill="#F2F2F2" transform="translate(249,247)"/>
<path d="M0 0 C0.33 0.99 0.66 1.98 1 3 C1.66 3.33 2.32 3.66 3 4 C1.35 4.66 -0.3 5.32 -2 6 C-1.67 6.33 -1.34 6.66 -1 7 C-0.90586313 9.05556661 -0.88257002 11.11440181 -0.88647461 13.17211914 C-0.88632858 13.81600082 -0.88618256 14.45988251 -0.8860321 15.12327576 C-0.88673115 17.26060303 -0.89452309 19.39784413 -0.90234375 21.53515625 C-0.90420796 23.01346285 -0.90563185 24.49177007 -0.90663147 25.97007751 C-0.91045641 29.86798802 -0.92028648 33.76586149 -0.93133545 37.66375732 C-0.94155008 41.63846333 -0.9461292 45.61317529 -0.95117188 49.58789062 C-0.96190878 57.391944 -0.97898491 65.19596682 -1 73 C-1.33 73 -1.66 73 -2 73 C-2.495 41.32 -2.495 41.32 -3 9 C-9.27 15.27 -15.54 21.54 -22 28 C-26 30 -26 30 -29 31 C-27.74339961 27.23019884 -25.86688877 25.73809637 -23 23 C-21.67391724 21.67391724 -21.67391724 21.67391724 -20.32104492 20.32104492 C-13.54736328 13.54736328 -6.77368164 6.77368164 0 0 Z " fill="#C6DCF3" transform="translate(154,208)"/>
<path d="M0 0 C0.66 0 1.32 0 2 0 C2 6.27 2 12.54 2 19 C-4.27 19 -10.54 19 -17 19 C-13.43631624 14.84236894 -10.12666699 11.01972446 -6.25 7.25 C-3.80849101 4.87492663 -1.89749253 2.8462388 0 0 Z " fill="#F5DD79" transform="translate(105,262)"/>
<path d="M0 0 C1.6640625 1.1796875 1.6640625 1.1796875 3 3 C3.3984375 5.59375 3.3984375 5.59375 3.375 8.5 C3.38273437 9.4590625 3.39046875 10.418125 3.3984375 11.40625 C3 14 3 14 1.69921875 15.8203125 C-1.13879342 17.7906106 -3.67589127 17.36263004 -7 17 C-9.22264871 13.66602694 -9.29675463 12.40485109 -9.3125 8.5 C-9.32925781 7.5409375 -9.34601563 6.581875 -9.36328125 5.59375 C-9 3 -9 3 -7.66796875 1.1796875 C-5.07505142 -0.65417909 -3.08007444 -0.3850093 0 0 Z " fill="#FAFAFA" transform="translate(421,247)"/>
<path d="M0 0 C-0.57862635 3.90572783 -2.52099209 6.01060811 -5 9 C-5.7734375 10.3921875 -5.7734375 10.3921875 -6.5625 11.8125 C-7.036875 12.534375 -7.51125 13.25625 -8 14 C-8.99 14 -9.98 14 -11 14 C-11.33 13.34 -11.66 12.68 -12 12 C-15.96 15.96 -19.92 19.92 -24 24 C-24.66 22.68 -25.32 21.36 -26 20 C-22.04 16.7 -18.08 13.4 -14 10 C-14.66 9.67 -15.32 9.34 -16 9 C-15.375 6.625 -15.375 6.625 -14 4 C-11.125 2.8125 -11.125 2.8125 -8 2 C-7.29875 1.62875 -6.5975 1.2575 -5.875 0.875 C-4 0 -4 0 0 0 Z " fill="#1752A3" transform="translate(166,197)"/>
<path d="M0 0 C0.33 0 0.66 0 1 0 C1.05786668 3.79160297 1.09355054 7.58309311 1.125 11.375 C1.14175781 12.45523437 1.15851563 13.53546875 1.17578125 14.6484375 C1.18222656 15.6796875 1.18867187 16.7109375 1.1953125 17.7734375 C1.20578613 18.72653809 1.21625977 19.67963867 1.22705078 20.66162109 C1 23 1 23 -1 25 C-2.97119141 25.22705078 -2.97119141 25.22705078 -5.3515625 25.1953125 C-6.20234375 25.18886719 -7.053125 25.18242187 -7.9296875 25.17578125 C-9.26386719 25.15064453 -9.26386719 25.15064453 -10.625 25.125 C-11.97078125 25.11146484 -11.97078125 25.11146484 -13.34375 25.09765625 C-15.56276586 25.0740497 -17.78125077 25.0411231 -20 25 C-20 24.34 -20 23.68 -20 23 C-13.73 23 -7.46 23 -1 23 C-1.09539062 21.50726563 -1.19078125 20.01453125 -1.2890625 18.4765625 C-1.40159073 16.52607327 -1.51353997 14.57555057 -1.625 12.625 C-1.68945312 11.64015625 -1.75390625 10.6553125 -1.8203125 9.640625 C-1.871875 8.69960938 -1.9234375 7.75859375 -1.9765625 6.7890625 C-2.02893066 5.91975098 -2.08129883 5.05043945 -2.13525391 4.15478516 C-2 2 -2 2 0 0 Z " fill="#FEFEE0" transform="translate(108,258)"/>
<path d="M0 0 C-1.30889621 2.89636446 -2.70221909 4.94305832 -4.96875 7.1640625 C-5.53980469 7.72867187 -6.11085938 8.29328125 -6.69921875 8.875 C-7.29347656 9.4525 -7.88773438 10.03 -8.5 10.625 C-9.09425781 11.21023438 -9.68851563 11.79546875 -10.30078125 12.3984375 C-11.40203177 13.48228677 -12.50532667 14.56406561 -13.61132812 15.64306641 C-14.74852847 16.75427589 -15.87571998 17.87571998 -17 19 C-17.33 18.34 -17.66 17.68 -18 17 C-18.99 17 -19.98 17 -21 17 C-18.59162267 14.53342768 -16.17192657 12.07826389 -13.75 9.625 C-13.06808594 8.92632812 -12.38617188 8.22765625 -11.68359375 7.5078125 C-11.01972656 6.8375 -10.35585937 6.1671875 -9.671875 5.4765625 C-9.0644043 4.85861816 -8.45693359 4.24067383 -7.83105469 3.60400391 C-5.40108161 1.47534749 -3.28497557 0 0 0 Z " fill="#E6F0EE" transform="translate(104,263)"/>
<path d="M0 0 C0.33 0 0.66 0 1 0 C1 4.29 1 8.58 1 13 C-2.96 13 -6.92 13 -11 13 C-10.113125 11.96875 -9.22625 10.9375 -8.3125 9.875 C-6.23870648 7.4621265 -4.19926452 5.02720565 -2.1875 2.5625 C-1.465625 1.716875 -0.74375 0.87125 0 0 Z " fill="#FEDD58" transform="translate(104,266)"/>
<path d="M0 0 C0 3 0 3 -2.58984375 5.63671875 C-4.25576091 7.17464227 -5.93764105 8.68762299 -7.64648438 10.17773438 C-10.77778762 13.09903404 -12.33812228 15.06539824 -12.87890625 19.39453125 C-12.91886719 20.58433594 -12.95882812 21.77414062 -13 23 C-13.33 23 -13.66 23 -14 23 C-14.90926802 13.53687726 -14.90926802 13.53687726 -12.83984375 10.0390625 C-9.91985624 7.096671 -6.59782331 5.04200782 -3 3 C-1.24850835 1.41754725 -1.24850835 1.41754725 0 0 Z " fill="#16BC6B" transform="translate(125,244)"/>
<path d="M0 0 C0.66 0.66 1.32 1.32 2 2 C-1.96 5.96 -5.92 9.92 -10 14 C-10.66 12.68 -11.32 11.36 -12 10 C-8.04 6.7 -4.08 3.4 0 0 Z " fill="#194D96" transform="translate(152,207)"/>
<path d="M0 0 C0.66 0.33 1.32 0.66 2 1 C4.71262116 1.2322646 7.40773126 1.41936235 10.125 1.5625 C11.25615234 1.62727539 11.25615234 1.62727539 12.41015625 1.69335938 C14.27321888 1.7994832 16.13658524 1.90025001 18 2 C17.67 2.66 17.34 3.32 17 4 C10.07 4 3.14 4 -4 4 C-2.68 2.68 -1.36 1.36 0 0 Z " fill="#205396" transform="translate(66,277)"/>
<path d="M0 0 C0.99 0.33 1.98 0.66 3 1 C-1.29 5.29 -5.58 9.58 -10 14 C-10.99 13.67 -11.98 13.34 -13 13 C-8.71 8.71 -4.42 4.42 0 0 Z " fill="#0C499D" transform="translate(148,219)"/>
<path d="M0 0 C-1.38188453 3.21043882 -2.92421903 5.04936365 -5.625 7.25 C-6.57246094 8.03117187 -6.57246094 8.03117187 -7.5390625 8.828125 C-8.02117187 9.21484375 -8.50328125 9.6015625 -9 10 C-9.36540804 5.49330085 -9.36540804 5.49330085 -7.75 3.3125 C-5.26584876 1.44938657 -3.16030444 0 0 0 Z " fill="#F6F8E3" transform="translate(104,263)"/>
<path d="M0 0 C0.99 0.33 1.98 0.66 3 1 C0.69 3.31 -1.62 5.62 -4 8 C-4.66 7.67 -5.32 7.34 -6 7 C-4.61990379 3.66476748 -3.15049348 1.81392049 0 0 Z " fill="#1551A3" transform="translate(73,271)"/>
<path d="M0 0 C0.33 0.99 0.66 1.98 1 3 C-1.31 5.31 -3.62 7.62 -6 10 C-6.33 9.01 -6.66 8.02 -7 7 C-4.66666667 4.66666667 -2.33333333 2.33333333 0 0 Z " fill="#E1F2FE" transform="translate(144,220)"/>
<path d="M0 0 C0 3 0 3 -1.8984375 5.04296875 C-2.71570313 5.75066406 -3.53296875 6.45835937 -4.375 7.1875 C-5.59316406 8.26064453 -5.59316406 8.26064453 -6.8359375 9.35546875 C-9 11 -9 11 -11 11 C-9.73973202 7.21919607 -8.06453466 6.22704575 -4.9375 3.8125 C-4.01839844 3.09707031 -3.09929687 2.38164062 -2.15234375 1.64453125 C-1.44207031 1.10183594 -0.73179688 0.55914062 0 0 Z " fill="#1C529D" transform="translate(126,228)"/>
<path d="M0 0 C0.33 0.66 0.66 1.32 1 2 C1.66 2.33 2.32 2.66 3 3 C0 5 0 5 -2 5 C-3.98 5.99 -3.98 5.99 -6 7 C-4.02 4.69 -2.04 2.38 0 0 Z " fill="#CEE5FB" transform="translate(145,217)"/>
</svg>
